<svg xmlns="http://www.w3.org/2000/svg"  viewBox="0 0 72 72" width="37px" height="37px" baseProfile="basic"><path d="M55.828,16.171c1.562,1.562,1.562,4.095,0,5.657l-34,34C21.048,56.609,20.023,57,19,57s-2.048-0.391-2.828-1.171	c-1.562-1.562-1.562-4.095,0-5.657l34-34C51.732,14.61,54.268,14.61,55.828,16.171z"/><path d="M55.828,55.829c-1.561,1.562-4.096,1.562-5.656,0l-34-34c-1.562-1.562-1.562-4.095,0-5.657C16.952,15.391,17.977,15,19,15	s2.048,0.391,2.828,1.171l34,34C57.391,51.734,57.391,54.266,55.828,55.829z"/></svg>